<?xml version="1.0" encoding="UTF-8" standalone="no"?>
<!DOCTYPE svg PUBLIC "-//W3C//DTD SVG 1.1//EN"
 "http://www.w3.org/Graphics/SVG/1.1/DTD/svg11.dtd">
<!-- Generated by graphviz version 2.42.3 (20191010.1750)
 -->
<!-- Title: plant Pages: 1 -->
<svg width="1547pt" height="764pt"
 viewBox="0.00 0.00 1546.86 764.38" xmlns="http://www.w3.org/2000/svg" xmlns:xlink="http://www.w3.org/1999/xlink">
<g id="graph0" class="graph" transform="scale(1 1) rotate(0) translate(4 760.38)">
<title>plant</title>
<polygon fill="white" stroke="transparent" points="-4,4 -4,-760.38 1542.86,-760.38 1542.86,4 -4,4"/>
<!-- legend -->
<g id="node1" class="node">
<title>legend</title>
<polygon fill="none" stroke="black" points="250,-117 0,-117 0,0 250,0 250,-117"/>
<text text-anchor="start" x="87.5" y="-94" font-family="Times,serif" text-decoration="underline" font-size="25.00">Legend</text>
<text text-anchor="start" x="71.5" y="-63.8" font-family="Times,serif" font-weight="bold" font-size="14.00">Plant components</text>
<text text-anchor="start" x="44.5" y="-49.8" font-family="Times,serif" font-size="14.00" fill="blue">Optimizer decision variables</text>
<text text-anchor="start" x="8" y="-35.8" font-family="Times,serif" font-size="14.00" fill="blue">(* denotes the variable is an hourly array)</text>
<text text-anchor="start" x="54" y="-21.8" font-family="Times,serif" font-size="14.00" fill="grey">Exogenous specifications</text>
<text text-anchor="start" x="123" y="-7.8" font-family="Times,serif" font-size="14.00"> </text>
</g>
<!-- electricity -->
<g id="node2" class="node">
<title>electricity</title>
<ellipse fill="none" stroke="darkgreen" cx="502.94" cy="-239.5" rx="79.89" ry="18"/>
<text text-anchor="middle" x="502.94" y="-235.8" font-family="Times,serif" font-size="14.00">Electricity Balance</text>
</g>
<!-- electrolyzer -->
<g id="node7" class="node">
<title>electrolyzer</title>
<polygon fill="none" stroke="black" points="894.89,-592.5 723.89,-592.5 723.89,-472.5 894.89,-472.5 894.89,-592.5"/>
<text text-anchor="start" x="772.39" y="-578.3" font-family="Times,serif" font-weight="bold" font-size="14.00">Electrolyzer</text>
<text text-anchor="start" x="735.89" y="-564.3" font-family="Times,serif" font-size="14.00" fill="blue">electrolyzer_capacity_kW</text>
<text text-anchor="start" x="749.89" y="-550.3" font-family="Times,serif" font-size="14.00" fill="grey">electrolyzer_CAPEX</text>
<text text-anchor="start" x="754.39" y="-536.3" font-family="Times,serif" font-size="14.00" fill="grey">electrolyzer_OPEX</text>
<text text-anchor="start" x="750.89" y="-522.3" font-family="Times,serif" font-size="14.00" fill="grey">electrolyzer_lifetime</text>
<text text-anchor="start" x="731.89" y="-508.3" font-family="Times,serif" font-size="14.00" fill="grey">electrolyzer_stack_CAPEX</text>
<text text-anchor="start" x="732.89" y="-494.3" font-family="Times,serif" font-size="14.00" fill="grey">electrolyzer_stack_lifetime</text>
<text text-anchor="start" x="744.89" y="-480.3" font-family="Times,serif" font-size="14.00" fill="grey">electrolyzer_efficiency</text>
</g>
<!-- electricity&#45;&gt;electrolyzer -->
<g id="edge5" class="edge">
<title>electricity&#45;&gt;electrolyzer</title>
<path fill="none" stroke="darkgreen" d="M507.3,-257.72C515.72,-298.44 541.46,-397.62 600.89,-453.5 632.02,-482.77 675.1,-501.51 713.94,-513.34"/>
<polygon fill="darkgreen" stroke="darkgreen" points="713.13,-516.75 723.71,-516.2 715.1,-510.03 713.13,-516.75"/>
<text text-anchor="middle" x="653.39" y="-514.3" font-family="Times,serif" font-size="14.00" fill="blue">H2_el_kWh*</text>
</g>
<!-- CO2 -->
<g id="node8" class="node">
<title>CO2</title>
<polygon fill="none" stroke="black" points="1197.63,-344.5 1065.63,-344.5 1065.63,-238.5 1197.63,-238.5 1197.63,-344.5"/>
<text text-anchor="start" x="1090.63" y="-330.3" font-family="Times,serif" font-weight="bold" font-size="14.00">CO2 Capture</text>
<text text-anchor="start" x="1073.63" y="-316.3" font-family="Times,serif" font-size="14.00" fill="blue">CO2_capacity_kgph</text>
<text text-anchor="start" x="1091.63" y="-302.3" font-family="Times,serif" font-size="14.00" fill="grey">CO2_CAPEX</text>
<text text-anchor="start" x="1096.13" y="-288.3" font-family="Times,serif" font-size="14.00" fill="grey">CO2_OPEX</text>
<text text-anchor="start" x="1093.13" y="-274.3" font-family="Times,serif" font-size="14.00" fill="grey">CO2_lifetime</text>
<text text-anchor="start" x="1078.63" y="-260.3" font-family="Times,serif" font-size="14.00" fill="grey">CO2_el_efficiency</text>
<text text-anchor="start" x="1078.13" y="-246.3" font-family="Times,serif" font-size="14.00" fill="grey">CO2_th_efficiency</text>
</g>
<!-- electricity&#45;&gt;CO2 -->
<g id="edge6" class="edge">
<title>electricity&#45;&gt;CO2</title>
<path fill="none" stroke="darkgreen" d="M520.95,-221.83C555.38,-187.49 637.42,-112.76 723.89,-85.5 796.37,-62.65 823.85,-58.49 894.89,-85.5 984.93,-119.73 984.01,-166.5 1056.89,-229.5 1057.71,-230.21 1058.54,-230.93 1059.37,-231.64"/>
<polygon fill="darkgreen" stroke="darkgreen" points="1057.11,-234.32 1066.98,-238.18 1061.67,-229.01 1057.11,-234.32"/>
<text text-anchor="middle" x="809.39" y="-89.3" font-family="Times,serif" font-size="14.00" fill="blue">CO2_el_kWh*</text>
</g>
<!-- H2tL -->
<g id="node9" class="node">
<title>H2tL</title>
<polygon fill="none" stroke="black" points="1204.63,-528.5 1058.63,-528.5 1058.63,-380.5 1204.63,-380.5 1204.63,-528.5"/>
<text text-anchor="start" x="1070.63" y="-514.3" font-family="Times,serif" font-weight="bold" font-size="14.00">Hydrogen&#45;to&#45;Liquid</text>
<text text-anchor="start" x="1076.13" y="-500.3" font-family="Times,serif" font-size="14.00" fill="blue">H2tL_capacity_kW</text>
<text text-anchor="start" x="1090.13" y="-486.3" font-family="Times,serif" font-size="14.00" fill="grey">H2tL_CAPEX</text>
<text text-anchor="start" x="1094.63" y="-472.3" font-family="Times,serif" font-size="14.00" fill="grey">H2tL_OPEX</text>
<text text-anchor="start" x="1091.13" y="-458.3" font-family="Times,serif" font-size="14.00" fill="grey">H2tL_lifetime</text>
<text text-anchor="start" x="1066.63" y="-444.3" font-family="Times,serif" font-size="14.00" fill="grey">H2tL_chem_efficiency</text>
<text text-anchor="start" x="1077.13" y="-430.3" font-family="Times,serif" font-size="14.00" fill="grey">H2tL_el_efficiency</text>
<text text-anchor="start" x="1080.13" y="-416.3" font-family="Times,serif" font-size="14.00" fill="grey">H2tL_heat_output</text>
<text text-anchor="start" x="1088.63" y="-402.3" font-family="Times,serif" font-size="14.00" fill="grey">H2tL_baseload</text>
<text text-anchor="start" x="1073.13" y="-388.3" font-family="Times,serif" font-size="14.00" fill="grey">H2tL_required_CO2</text>
</g>
<!-- electricity&#45;&gt;H2tL -->
<g id="edge7" class="edge">
<title>electricity&#45;&gt;H2tL</title>
<path fill="none" stroke="darkgreen" d="M518.7,-257.26C551.14,-294.72 633.01,-380.96 723.89,-412.5 781.84,-432.61 946.9,-444.71 1048.06,-450.45"/>
<polygon fill="darkgreen" stroke="darkgreen" points="1048.06,-453.95 1058.24,-451.02 1048.46,-446.97 1048.06,-453.95"/>
<text text-anchor="middle" x="809.39" y="-442.3" font-family="Times,serif" font-size="14.00" fill="blue">H2tL_el_kWh*</text>
</g>
<!-- battery -->
<g id="node10" class="node">
<title>battery</title>
<path fill="none" stroke="black" d="M886.39,-276.98C886.39,-286.23 851.87,-293.75 809.39,-293.75 766.9,-293.75 732.39,-286.23 732.39,-276.98 732.39,-276.98 732.39,-126.02 732.39,-126.02 732.39,-116.77 766.9,-109.25 809.39,-109.25 851.87,-109.25 886.39,-116.77 886.39,-126.02 886.39,-126.02 886.39,-276.98 886.39,-276.98"/>
<path fill="none" stroke="black" d="M886.39,-276.98C886.39,-267.72 851.87,-260.2 809.39,-260.2 766.9,-260.2 732.39,-267.72 732.39,-276.98"/>
<text text-anchor="start" x="786.39" y="-240.3" font-family="Times,serif" font-weight="bold" font-size="14.00">Battery</text>
<text text-anchor="start" x="745.89" y="-226.3" font-family="Times,serif" font-size="14.00" fill="blue">battery_capacity_kWh</text>
<text text-anchor="start" x="752.89" y="-212.3" font-family="Times,serif" font-size="14.00" fill="blue">battery_state_kWh*</text>
<text text-anchor="start" x="763.39" y="-198.3" font-family="Times,serif" font-size="14.00" fill="grey">battery_CAPEX</text>
<text text-anchor="start" x="767.89" y="-184.3" font-family="Times,serif" font-size="14.00" fill="grey">battery_OPEX</text>
<text text-anchor="start" x="764.39" y="-170.3" font-family="Times,serif" font-size="14.00" fill="grey">battery_lifetime</text>
<text text-anchor="start" x="740.39" y="-156.3" font-family="Times,serif" font-size="14.00" fill="grey">battery_cycle_efficiency</text>
<text text-anchor="start" x="768.89" y="-142.3" font-family="Times,serif" font-size="14.00" fill="grey">battery_c_rate</text>
</g>
<!-- electricity&#45;&gt;battery -->
<g id="edge2" class="edge">
<title>electricity&#45;&gt;battery</title>
<path fill="none" stroke="darkgreen" d="M576.48,-232.42C614.98,-228.45 663.06,-223.17 705.89,-217.5 711.24,-216.79 716.75,-216.03 722.3,-215.23"/>
<polygon fill="darkgreen" stroke="darkgreen" points="722.93,-218.68 732.32,-213.78 721.92,-211.75 722.93,-218.68"/>
<text text-anchor="middle" x="653.39" y="-233.3" font-family="Times,serif" font-size="14.00" fill="blue">battery_chr_kWh*</text>
</g>
<!-- heat -->
<g id="node13" class="node">
<title>heat</title>
<polygon fill="none" stroke="black" points="885.89,-403.5 732.89,-403.5 732.89,-311.5 885.89,-311.5 885.89,-403.5"/>
<text text-anchor="start" x="774.89" y="-389.3" font-family="Times,serif" font-weight="bold" font-size="14.00">Heat Pump</text>
<text text-anchor="start" x="740.89" y="-375.3" font-family="Times,serif" font-size="14.00" fill="blue">heatpump_capacity_kW</text>
<text text-anchor="start" x="770.89" y="-361.3" font-family="Times,serif" font-size="14.00" fill="grey">heat_CAPEX</text>
<text text-anchor="start" x="775.89" y="-347.3" font-family="Times,serif" font-size="14.00" fill="grey">heat_OPEX</text>
<text text-anchor="start" x="772.39" y="-333.3" font-family="Times,serif" font-size="14.00" fill="grey">heat_lifetime</text>
<text text-anchor="start" x="757.89" y="-319.3" font-family="Times,serif" font-size="14.00" fill="grey">heat_el_efficiency</text>
</g>
<!-- electricity&#45;&gt;heat -->
<g id="edge8" class="edge">
<title>electricity&#45;&gt;heat</title>
<path fill="none" stroke="darkgreen" d="M544.06,-255.05C589.41,-272.62 664.54,-301.75 723.14,-324.46"/>
<polygon fill="darkgreen" stroke="darkgreen" points="722.18,-327.84 732.77,-328.19 724.71,-321.31 722.18,-327.84"/>
<text text-anchor="middle" x="653.39" y="-319.3" font-family="Times,serif" font-size="14.00" fill="blue">heat_el_kWh*</text>
</g>
<!-- curtailed -->
<g id="node14" class="node">
<title>curtailed</title>
<text text-anchor="middle" x="809.39" y="-18.8" font-family="Times,serif" font-size="14.00" fill="blue">curtailed_el_kWh*</text>
</g>
<!-- electricity&#45;&gt;curtailed -->
<g id="edge9" class="edge">
<title>electricity&#45;&gt;curtailed</title>
<path fill="none" stroke="darkgreen" d="M508.35,-221.28C518.19,-184.8 545.54,-102.86 600.89,-62.5 639.99,-33.98 693.9,-24.23 736.96,-21.48"/>
<polygon fill="darkgreen" stroke="darkgreen" points="737.3,-24.97 747.1,-20.95 736.93,-17.98 737.3,-24.97"/>
</g>
<!-- H2_mb -->
<g id="node3" class="node">
<title>H2_mb</title>
<ellipse fill="none" stroke="cyan" cx="1131.63" cy="-602.5" rx="74.99" ry="18"/>
<text text-anchor="middle" x="1131.63" y="-598.8" font-family="Times,serif" font-size="14.00">H2 Mass Balance</text>
</g>
<!-- H2_mb&#45;&gt;H2tL -->
<g id="edge11" class="edge">
<title>H2_mb&#45;&gt;H2tL</title>
<path fill="none" stroke="cyan" d="M1131.63,-584.48C1131.63,-572.67 1131.63,-556.28 1131.63,-539.1"/>
<polygon fill="cyan" stroke="cyan" points="1135.13,-538.93 1131.63,-528.93 1128.13,-538.93 1135.13,-538.93"/>
<text text-anchor="middle" x="1121.13" y="-552.8" font-family="Times,serif" font-size="14.00" fill="blue">H2_consumption_kWh*</text>
</g>
<!-- H2stor -->
<g id="node11" class="node">
<title>H2stor</title>
<path fill="none" stroke="black" d="M880.39,-743.02C880.39,-750.32 848.56,-756.25 809.39,-756.25 770.21,-756.25 738.39,-750.32 738.39,-743.02 738.39,-743.02 738.39,-623.98 738.39,-623.98 738.39,-616.68 770.21,-610.75 809.39,-610.75 848.56,-610.75 880.39,-616.68 880.39,-623.98 880.39,-623.98 880.39,-743.02 880.39,-743.02"/>
<path fill="none" stroke="black" d="M880.39,-743.02C880.39,-735.72 848.56,-729.8 809.39,-729.8 770.21,-729.8 738.39,-735.72 738.39,-743.02"/>
<text text-anchor="start" x="775.39" y="-708.3" font-family="Times,serif" font-weight="bold" font-size="14.00">H2 Storage</text>
<text text-anchor="start" x="746.39" y="-694.3" font-family="Times,serif" font-size="14.00" fill="blue">H2stor_capacity_kWh</text>
<text text-anchor="start" x="753.39" y="-680.3" font-family="Times,serif" font-size="14.00" fill="blue">H2stor_state_kWh*</text>
<text text-anchor="start" x="763.39" y="-666.3" font-family="Times,serif" font-size="14.00" fill="grey">H2stor_CAPEX</text>
<text text-anchor="start" x="768.39" y="-652.3" font-family="Times,serif" font-size="14.00" fill="grey">H2stor_OPEX</text>
<text text-anchor="start" x="764.89" y="-638.3" font-family="Times,serif" font-size="14.00" fill="grey">H2stor_lifetime</text>
</g>
<!-- H2_mb&#45;&gt;H2stor -->
<g id="edge13" class="edge">
<title>H2_mb&#45;&gt;H2stor</title>
<path fill="none" stroke="cyan" d="M1058.76,-598.03C1015.45,-597.54 959.79,-600.88 912.89,-616.5 904.98,-619.13 897.1,-622.53 889.42,-626.39"/>
<polygon fill="cyan" stroke="cyan" points="887.69,-623.34 880.5,-631.12 890.97,-629.53 887.69,-623.34"/>
<text text-anchor="middle" x="975.89" y="-620.3" font-family="Times,serif" font-size="14.00" fill="blue">H2stor_chr_kWh*</text>
</g>
<!-- CO2_mb -->
<g id="node4" class="node">
<title>CO2_mb</title>
<ellipse fill="none" stroke="purple" cx="1457.62" cy="-241.5" rx="81.49" ry="18"/>
<text text-anchor="middle" x="1457.62" y="-237.8" font-family="Times,serif" font-size="14.00">CO2 Mass Balance</text>
</g>
<!-- CO2_mb&#45;&gt;H2tL -->
<g id="edge15" class="edge">
<title>CO2_mb&#45;&gt;H2tL</title>
<path fill="none" stroke="purple" d="M1425.22,-258.17C1405.95,-268.39 1380.75,-281.73 1358.37,-293.5 1298.9,-324.77 1278.61,-323.84 1224.37,-363.5 1219.96,-366.73 1215.55,-370.17 1211.2,-373.74"/>
<polygon fill="purple" stroke="purple" points="1208.79,-371.2 1203.41,-380.32 1213.31,-376.54 1208.79,-371.2"/>
<text text-anchor="middle" x="1291.37" y="-367.3" font-family="Times,serif" font-size="14.00" fill="blue">CO2_consumption_kg*</text>
</g>
<!-- CO2stor -->
<g id="node12" class="node">
<title>CO2stor</title>
<path fill="none" stroke="black" d="M1201.13,-207.02C1201.13,-214.32 1169.98,-220.25 1131.63,-220.25 1093.28,-220.25 1062.13,-214.32 1062.13,-207.02 1062.13,-207.02 1062.13,-87.98 1062.13,-87.98 1062.13,-80.68 1093.28,-74.75 1131.63,-74.75 1169.98,-74.75 1201.13,-80.68 1201.13,-87.98 1201.13,-87.98 1201.13,-207.02 1201.13,-207.02"/>
<path fill="none" stroke="black" d="M1201.13,-207.02C1201.13,-199.72 1169.98,-193.8 1131.63,-193.8 1093.28,-193.8 1062.13,-199.72 1062.13,-207.02"/>
<text text-anchor="start" x="1092.63" y="-172.3" font-family="Times,serif" font-weight="bold" font-size="14.00">CO2 Storage</text>
<text text-anchor="start" x="1070.13" y="-158.3" font-family="Times,serif" font-size="14.00" fill="blue">CO2stor_capacity_kg</text>
<text text-anchor="start" x="1077.13" y="-144.3" font-family="Times,serif" font-size="14.00" fill="blue">CO2stor_state_kg*</text>
<text text-anchor="start" x="1081.13" y="-130.3" font-family="Times,serif" font-size="14.00" fill="grey">CO2stor_CAPEX</text>
<text text-anchor="start" x="1085.63" y="-116.3" font-family="Times,serif" font-size="14.00" fill="grey">CO2stor_OPEX</text>
<text text-anchor="start" x="1082.63" y="-102.3" font-family="Times,serif" font-size="14.00" fill="grey">CO2stor_lifetime</text>
</g>
<!-- CO2_mb&#45;&gt;CO2stor -->
<g id="edge17" class="edge">
<title>CO2_mb&#45;&gt;CO2stor</title>
<path fill="none" stroke="purple" d="M1442.57,-223.58C1425.28,-203.07 1393.82,-170.52 1358.37,-156.5 1312.01,-138.17 1256.04,-135.82 1211.43,-138.1"/>
<polygon fill="purple" stroke="purple" points="1211,-134.62 1201.22,-138.72 1211.42,-141.61 1211,-134.62"/>
<text text-anchor="middle" x="1291.37" y="-160.3" font-family="Times,serif" font-size="14.00" fill="blue">CO2_chr_kg*</text>
</g>
<!-- pv -->
<g id="node5" class="node">
<title>pv</title>
<polygon fill="none" stroke="black" points="180.5,-345.5 57.5,-345.5 57.5,-251.5 180.5,-251.5 192.5,-298.5 180.5,-345.5"/>
<text text-anchor="start" x="80" y="-323.3" font-family="Times,serif" font-weight="bold" font-size="14.00">Solar PV Plant</text>
<text text-anchor="start" x="75.5" y="-309.3" font-family="Times,serif" font-size="14.00" fill="blue">PV_capacity_kW</text>
<text text-anchor="start" x="89.5" y="-295.3" font-family="Times,serif" font-size="14.00" fill="grey">PV_CAPEX</text>
<text text-anchor="start" x="94" y="-281.3" font-family="Times,serif" font-size="14.00" fill="grey">PV_OPEX</text>
<text text-anchor="start" x="90.5" y="-267.3" font-family="Times,serif" font-size="14.00" fill="grey">PV_lifetime</text>
</g>
<!-- pv&#45;&gt;electricity -->
<g id="edge4" class="edge">
<title>pv&#45;&gt;electricity</title>
<path fill="none" stroke="darkgreen" d="M192.78,-288.02C258.3,-277.74 358.09,-262.08 426.46,-251.35"/>
<polygon fill="darkgreen" stroke="darkgreen" points="427.39,-254.74 436.73,-249.73 426.31,-247.83 427.39,-254.74"/>
<text text-anchor="middle" x="336.5" y="-279.3" font-family="Times,serif" font-size="14.00" fill="blue">PV_production_kWh*</text>
</g>
<!-- wind -->
<g id="node6" class="node">
<title>wind</title>
<polygon fill="none" stroke="black" points="184.5,-221.5 53.5,-221.5 53.5,-141.5 184.5,-141.5 196.5,-181.5 184.5,-221.5"/>
<text text-anchor="start" x="90.5" y="-206.3" font-family="Times,serif" font-weight="bold" font-size="14.00">Wind Plant</text>
<text text-anchor="start" x="64.5" y="-192.3" font-family="Times,serif" font-size="14.00" fill="blue">wind_units (turbines)</text>
<text text-anchor="start" x="84.5" y="-178.3" font-family="Times,serif" font-size="14.00" fill="grey">wind_CAPEX</text>
<text text-anchor="start" x="89" y="-164.3" font-family="Times,serif" font-size="14.00" fill="grey">wind_OPEX</text>
<text text-anchor="start" x="85.5" y="-150.3" font-family="Times,serif" font-size="14.00" fill="grey">wind_lifetime</text>
</g>
<!-- wind&#45;&gt;electricity -->
<g id="edge1" class="edge">
<title>wind&#45;&gt;electricity</title>
<path fill="none" stroke="darkgreen" d="M196.71,-192.41C262.26,-202.52 359.49,-217.52 426.51,-227.86"/>
<polygon fill="darkgreen" stroke="darkgreen" points="426.16,-231.35 436.58,-229.42 427.23,-224.43 426.16,-231.35"/>
<text text-anchor="middle" x="336.5" y="-227.3" font-family="Times,serif" font-size="14.00" fill="blue">wind_production_kWh*</text>
</g>
<!-- electrolyzer&#45;&gt;H2_mb -->
<g id="edge10" class="edge">
<title>electrolyzer&#45;&gt;H2_mb</title>
<path fill="none" stroke="cyan" d="M894.94,-549C938.11,-557.64 991.4,-568.67 1038.89,-579.5 1048.96,-581.8 1059.62,-584.35 1069.97,-586.9"/>
<polygon fill="cyan" stroke="cyan" points="1069.22,-590.32 1079.77,-589.34 1070.91,-583.53 1069.22,-590.32"/>
<text text-anchor="middle" x="975.89" y="-583.3" font-family="Times,serif" font-size="14.00" fill="blue">H2_production_kWh*</text>
</g>
<!-- CO2&#45;&gt;CO2_mb -->
<g id="edge14" class="edge">
<title>CO2&#45;&gt;CO2_mb</title>
<path fill="none" stroke="purple" d="M1197.8,-281.44C1250.51,-273.31 1324.82,-261.84 1380.3,-253.28"/>
<polygon fill="purple" stroke="purple" points="1381.09,-256.7 1390.43,-251.71 1380.02,-249.78 1381.09,-256.7"/>
<text text-anchor="middle" x="1291.37" y="-280.3" font-family="Times,serif" font-size="14.00" fill="blue">CO2_production_kg*</text>
</g>
<!-- H2tL&#45;&gt;CO2 -->
<g id="edge19" class="edge">
<title>H2tL&#45;&gt;CO2</title>
<path fill="none" stroke="red" d="M1131.63,-380.28C1131.63,-371.74 1131.63,-363.21 1131.63,-354.68"/>
<polygon fill="red" stroke="red" points="1135.13,-354.67 1131.63,-344.67 1128.13,-354.67 1135.13,-354.67"/>
</g>
<!-- kerosene -->
<g id="node15" class="node">
<title>kerosene</title>
<ellipse fill="none" stroke="black" cx="1457.62" cy="-561.5" rx="46.61" ry="46.61"/>
<ellipse fill="none" stroke="black" cx="1457.62" cy="-561.5" rx="50.59" ry="50.59"/>
<text text-anchor="start" x="1429.62" y="-558.8" font-family="Times,serif" font-weight="bold" font-size="14.00">Kerosene</text>
</g>
<!-- H2tL&#45;&gt;kerosene -->
<g id="edge20" class="edge">
<title>H2tL&#45;&gt;kerosene</title>
<path fill="none" stroke="black" d="M1204.93,-478.38C1263.57,-497.75 1345.11,-524.67 1399.3,-542.57"/>
<polygon fill="black" stroke="black" points="1398.5,-545.99 1409.09,-545.81 1400.7,-539.35 1398.5,-545.99"/>
</g>
<!-- diesel -->
<g id="node16" class="node">
<title>diesel</title>
<ellipse fill="none" stroke="black" cx="1457.62" cy="-454.5" rx="33.62" ry="33.62"/>
<ellipse fill="none" stroke="black" cx="1457.62" cy="-454.5" rx="37.6" ry="37.6"/>
<text text-anchor="start" x="1439.62" y="-451.8" font-family="Times,serif" font-weight="bold" font-size="14.00">Diesel</text>
</g>
<!-- H2tL&#45;&gt;diesel -->
<g id="edge21" class="edge">
<title>H2tL&#45;&gt;diesel</title>
<path fill="none" stroke="black" d="M1204.93,-454.5C1267.35,-454.5 1355.71,-454.5 1409.43,-454.5"/>
<polygon fill="black" stroke="black" points="1409.69,-458 1419.69,-454.5 1409.69,-451 1409.69,-458"/>
</g>
<!-- gasoline -->
<g id="node17" class="node">
<title>gasoline</title>
<ellipse fill="none" stroke="black" cx="1457.62" cy="-349.5" rx="44.71" ry="44.71"/>
<ellipse fill="none" stroke="black" cx="1457.62" cy="-349.5" rx="48.69" ry="48.69"/>
<text text-anchor="start" x="1431.12" y="-346.8" font-family="Times,serif" font-weight="bold" font-size="14.00">Gasoline</text>
</g>
<!-- H2tL&#45;&gt;gasoline -->
<g id="edge22" class="edge">
<title>H2tL&#45;&gt;gasoline</title>
<path fill="none" stroke="black" d="M1204.93,-431.07C1264.28,-411.83 1347.07,-385 1401.24,-367.45"/>
<polygon fill="black" stroke="black" points="1402.58,-370.69 1411.01,-364.28 1400.42,-364.03 1402.58,-370.69"/>
</g>
<!-- battery&#45;&gt;electricity -->
<g id="edge3" class="edge">
<title>battery&#45;&gt;electricity</title>
<path fill="none" stroke="darkgreen" d="M732.27,-192.68C692.71,-190.03 643.79,-189.8 600.89,-198.5 581.24,-202.48 560.63,-210.58 543.5,-218.53"/>
<polygon fill="darkgreen" stroke="darkgreen" points="541.86,-215.43 534.36,-222.91 544.89,-221.75 541.86,-215.43"/>
<text text-anchor="middle" x="653.39" y="-202.3" font-family="Times,serif" font-size="14.00" fill="blue">battery_dis_kWh*</text>
</g>
<!-- H2stor&#45;&gt;H2_mb -->
<g id="edge12" class="edge">
<title>H2stor&#45;&gt;H2_mb</title>
<path fill="none" stroke="cyan" d="M880.49,-671.37C926.02,-662.86 986.43,-650.37 1038.89,-635.5 1053.04,-631.49 1068.16,-626.4 1081.95,-621.42"/>
<polygon fill="cyan" stroke="cyan" points="1083.55,-624.57 1091.73,-617.84 1081.14,-617.99 1083.55,-624.57"/>
<text text-anchor="middle" x="975.89" y="-668.3" font-family="Times,serif" font-size="14.00" fill="blue">H2stor_dis_kWh*</text>
</g>
<!-- CO2stor&#45;&gt;CO2_mb -->
<g id="edge16" class="edge">
<title>CO2stor&#45;&gt;CO2_mb</title>
<path fill="none" stroke="purple" d="M1201.34,-167.43C1259.69,-184.36 1342.54,-208.4 1397.85,-224.45"/>
<polygon fill="purple" stroke="purple" points="1396.93,-227.83 1407.51,-227.25 1398.88,-221.1 1396.93,-227.83"/>
<text text-anchor="middle" x="1291.37" y="-215.3" font-family="Times,serif" font-size="14.00" fill="blue">CO2_dis_kg*</text>
</g>
<!-- heat&#45;&gt;CO2 -->
<g id="edge18" class="edge">
<title>heat&#45;&gt;CO2</title>
<path fill="none" stroke="red" d="M886.28,-341.86C937.43,-331.32 1004.62,-317.47 1055.59,-306.96"/>
<polygon fill="red" stroke="red" points="1056.47,-310.36 1065.56,-304.91 1055.06,-303.5 1056.47,-310.36"/>
</g>
</g>
</svg>
